<svg width="120" height="120" xmlns="http://www.w3.org/2000/svg">
  <!-- 背景圆角矩形，参考cubox的设计 -->
  <rect x="10" y="10" width="100" height="100" rx="20" ry="20" fill="url(#gradient)" stroke="#E5E7EB" stroke-width="1"/>
  
  <!-- 渐变定义 -->
  <defs>
    <linearGradient id="gradient" x1="0%" y1="0%" x2="100%" y2="100%">
      <stop offset="0%" style="stop-color:#374151;stop-opacity:1" />
      <stop offset="50%" style="stop-color:#1F2937;stop-opacity:1" />
      <stop offset="100%" style="stop-color:#111827;stop-opacity:1" />
    </linearGradient>
  </defs>
  
  <!-- 中心大椭圆 - 更圆 -->
  <ellipse cx="60" cy="60" rx="14" ry="12" fill="#FFFFFF" opacity="0.95" transform="rotate(10 60 60)"/>
  
  <!-- 同步旋涡效果的椭圆 - 对称版 -->
  <!-- 内圈 - 4个椭圆对称分布 -->
  <ellipse cx="60" cy="35" rx="6" ry="3.5" fill="#FFFFFF" opacity="0.85" transform="rotate(0 60 35)"/>
  <ellipse cx="85" cy="60" rx="6" ry="3.5" fill="#FFFFFF" opacity="0.85" transform="rotate(90 85 60)"/>
  <ellipse cx="60" cy="85" rx="6" ry="3.5" fill="#FFFFFF" opacity="0.85" transform="rotate(180 60 85)"/>
  <ellipse cx="35" cy="60" rx="6" ry="3.5" fill="#FFFFFF" opacity="0.85" transform="rotate(270 35 60)"/>
  
  <!-- 外圈 - 4个小椭圆对称分布 -->
  <ellipse cx="60" cy="25" rx="4" ry="2.5" fill="#FFFFFF" opacity="0.7" transform="rotate(0 60 25)"/>
  <ellipse cx="95" cy="60" rx="4" ry="2.5" fill="#FFFFFF" opacity="0.7" transform="rotate(90 95 60)"/>
  <ellipse cx="60" cy="95" rx="4" ry="2.5" fill="#FFFFFF" opacity="0.7" transform="rotate(180 60 95)"/>
  <ellipse cx="25" cy="60" rx="4" ry="2.5" fill="#FFFFFF" opacity="0.7" transform="rotate(270 25 60)"/>
</svg>